<?xml version="1.0" encoding="UTF-8" standalone="no"?>
<!DOCTYPE svg PUBLIC "-//W3C//DTD SVG 1.0//EN" "http://www.w3.org/TR/2001/REC-SVG-20010904/DTD/svg10.dtd">
<!-- 由 Microsoft Visio 11.0, SVG Export, v1.0 生成 MVC架构示意图.svg Page-1 -->
<svg xmlns="http://www.w3.org/2000/svg" xmlns:xlink="http://www.w3.org/1999/xlink" xmlns:ev="http://www.w3.org/2001/xml-events"
		xmlns:v="http://schemas.microsoft.com/visio/2003/SVGExtensions/" width="6.81102in" height="4.92126in"
		viewBox="0 0 490.394 354.331" xml:space="preserve" color-interpolation-filters="sRGB" class="st8">
	<v:documentProperties v:langID="2052" v:metric="true" v:viewMarkup="false">
		<v:userDefs>
			<v:ud v:nameU="msvNoAutoConnect" v:val="VT0(0):26"/>
		</v:userDefs>
	</v:documentProperties>

	<style type="text/css">
	<![CDATA[
		.st1 {visibility:visible}
		.st2 {fill:#cdcdcd;fill-opacity:0.5;stroke:#cdcdcd;stroke-linecap:round;stroke-linejoin:round;stroke-opacity:0.5;stroke-width:0.25}
		.st3 {fill:url(#grad30-6);stroke:#404040;stroke-linecap:round;stroke-linejoin:round;stroke-width:0.25}
		.st4 {fill:#000000;font-family:Calibri;font-size:1.33333em}
		.st5 {fill:none;stroke:none;stroke-linecap:round;stroke-linejoin:round;stroke-width:0.25}
		.st6 {fill:#000000;font-family:Calibri;font-size:1.16666em}
		.st7 {font-family:宋体;font-size:1em}
		.st8 {fill:none;fill-rule:evenodd;font-size:12px;overflow:visible;stroke-linecap:square;stroke-miterlimit:3}
	]]>
	</style>

	<defs id="Patterns_And_Gradients">
		<linearGradient id="grad30-6" v:fillPattern="30" v:foreground="#f0f0f0" v:background="#ffffff" x1="0" y1="1" x2="0" y2="0">
			<stop offset="0" style="stop-color:#f0f0f0;stop-opacity:1"/>
			<stop offset="1" style="stop-color:#ffffff;stop-opacity:1"/>
		</linearGradient>
	</defs>
	<g v:mID="0" v:index="1" v:groupContext="foregroundPage">
		<v:userDefs>
			<v:ud v:nameU="msvThemeColors" v:val="VT0(36):26"/>
			<v:ud v:nameU="msvThemeEffects" v:val="VT0(16):26"/>
			<v:ud v:nameU="msvThemeOrder" v:val="VT0(0):26"/>
		</v:userDefs>
		<title>页-1</title>
		<v:pageProperties v:drawingScale="0.0393701" v:pageScale="0.0393701" v:drawingUnits="24" v:shadowOffsetX="8.50394"
				v:shadowOffsetY="-8.50394"/>
		<g id="shape1-1" v:mID="1" v:groupContext="shape" transform="translate(187.087,-198.425)">
			<title>圆形</title>
			<desc>Controller</desc>
			<v:userDefs>
				<v:ud v:nameU="visVersion" v:val="VT0(14):26"/>
				<v:ud v:nameU="msvThemeColors" v:val="VT0(36):26"/>
				<v:ud v:nameU="msvThemeEffects" v:val="VT0(16):26"/>
			</v:userDefs>
			<v:textBlock v:margins="rect(4,4,4,4)" v:tabSpace="42.5197"/>
			<v:textRect cx="56.6929" cy="297.638" width="99.22" height="85.0394"/>
			<g id="shadow1-2" v:groupContext="shadow" v:shadowOffsetX="1.44" v:shadowOffsetY="-1.44" v:shadowType="1"
					transform="matrix(1,0,0,1,1.44,1.44)" class="st1">
				<path d="M0 297.64 A56.6929 56.6929 0 0 1 113.39 297.64 A56.6929 56.6929 0 1 1 0 297.64 Z" class="st2"/>
			</g>
			<path d="M0 297.64 A56.6929 56.6929 0 0 1 113.39 297.64 A56.6929 56.6929 0 1 1 0 297.64 Z" class="st3"/>
			<text x="23.88" y="302.44" class="st4" v:langID="2052"><v:paragraph v:horizAlign="1"/><v:tabList/>Controller</text>		</g>
		<g id="shape2-8" v:mID="2" v:groupContext="shape" transform="translate(42.5197,-42.5197)">
			<title>圆形.2</title>
			<desc>View</desc>
			<v:userDefs>
				<v:ud v:nameU="visVersion" v:val="VT0(14):26"/>
				<v:ud v:nameU="msvThemeColors" v:val="VT0(36):26"/>
				<v:ud v:nameU="msvThemeEffects" v:val="VT0(16):26"/>
			</v:userDefs>
			<v:textBlock v:margins="rect(4,4,4,4)" v:tabSpace="42.5197"/>
			<v:textRect cx="56.6929" cy="297.638" width="99.22" height="85.0394"/>
			<g id="shadow2-9" v:groupContext="shadow" v:shadowOffsetX="1.44" v:shadowOffsetY="-1.44" v:shadowType="1"
					transform="matrix(1,0,0,1,1.44,1.44)" class="st1">
				<path d="M0 297.64 A56.6929 56.6929 0 0 1 113.39 297.64 A56.6929 56.6929 0 1 1 0 297.64 Z" class="st2"/>
			</g>
			<path d="M0 297.64 A56.6929 56.6929 0 0 1 113.39 297.64 A56.6929 56.6929 0 1 1 0 297.64 Z" class="st3"/>
			<text x="40.62" y="302.44" class="st4" v:langID="2052"><v:paragraph v:horizAlign="1"/><v:tabList/>View</text>		</g>
		<g id="shape3-14" v:mID="3" v:groupContext="shape" transform="translate(334.488,-42.5197)">
			<title>圆形.3</title>
			<desc>Model</desc>
			<v:userDefs>
				<v:ud v:nameU="visVersion" v:val="VT0(14):26"/>
				<v:ud v:nameU="msvThemeColors" v:val="VT0(36):26"/>
				<v:ud v:nameU="msvThemeEffects" v:val="VT0(16):26"/>
			</v:userDefs>
			<v:textBlock v:margins="rect(4,4,4,4)" v:tabSpace="42.5197"/>
			<v:textRect cx="56.6929" cy="297.638" width="99.22" height="85.0394"/>
			<g id="shadow3-15" v:groupContext="shadow" v:shadowOffsetX="1.44" v:shadowOffsetY="-1.44" v:shadowType="1"
					transform="matrix(1,0,0,1,1.44,1.44)" class="st1">
				<path d="M0 297.64 A56.6929 56.6929 0 0 1 113.39 297.64 A56.6929 56.6929 0 1 1 0 297.64 Z" class="st2"/>
			</g>
			<path d="M0 297.64 A56.6929 56.6929 0 0 1 113.39 297.64 A56.6929 56.6929 0 1 1 0 297.64 Z" class="st3"/>
			<text x="35.61" y="302.44" class="st4" v:langID="2052"><v:paragraph v:horizAlign="1"/><v:tabList/>Model</text>		</g>
		<g id="shape4-20" v:mID="4" v:groupContext="shape" transform="translate(358.409,435.653) rotate(-45) scale(1,-1)">
			<title>45 度单向箭头</title>
			<v:userDefs>
				<v:ud v:nameU="visVersion" v:val="VT0(14):26"/>
				<v:ud v:nameU="msvThemeColors" v:val="VT0(36):26"/>
				<v:ud v:nameU="msvThemeEffects" v:val="VT0(16):26"/>
			</v:userDefs>
			<g id="shadow4-21" v:groupContext="shadow" v:shadowOffsetX="1.44" v:shadowOffsetY="-1.44" v:shadowType="1"
					transform="matrix(1,0,0,1,-8.52651E-014,-2.03647)" class="st1">
				<path d="M0 334.49 L19.84 314.65 L19.84 327.74 L93.2 327.74 L93.2 341.23 L19.84 341.23 L19.84 354.33 L0 334.49 Z"
						class="st2"/>
			</g>
			<path d="M0 334.49 L19.84 314.65 L19.84 327.74 L93.2 327.74 L93.2 341.23 L19.84 341.23 L19.84 354.33 L0 334.49 Z"
					class="st3"/>
		</g>
		<g id="shape5-25" v:mID="5" v:groupContext="shape" transform="translate(-18.9598,-76.3614) rotate(-45) scale(-1,1)">
			<title>45 度单向箭头.5</title>
			<v:userDefs>
				<v:ud v:nameU="visVersion" v:val="VT0(14):26"/>
				<v:ud v:nameU="msvThemeColors" v:val="VT0(36):26"/>
				<v:ud v:nameU="msvThemeEffects" v:val="VT0(16):26"/>
			</v:userDefs>
			<g id="shadow5-26" v:groupContext="shadow" v:shadowOffsetX="1.44" v:shadowOffsetY="-1.44" v:shadowType="1"
					transform="matrix(1,0,0,1,-7.10543E-015,2.03647)" class="st1">
				<path d="M0 334.49 L19.84 314.65 L19.84 327.74 L87.19 327.74 L87.19 341.23 L19.84 341.23 L19.84 354.33 L0 334.49 Z"
						class="st2"/>
			</g>
			<path d="M0 334.49 L19.84 314.65 L19.84 327.74 L87.19 327.74 L87.19 341.23 L19.84 341.23 L19.84 354.33 L0 334.49 Z"
					class="st3"/>
		</g>
		<g id="shape7-30" v:mID="7" v:groupContext="shape" transform="translate(586.154,-31.0071) rotate(45) scale(-1,1)">
			<title>45 度单向箭头.7</title>
			<v:userDefs>
				<v:ud v:nameU="visVersion" v:val="VT0(14):26"/>
				<v:ud v:nameU="msvThemeColors" v:val="VT0(36):26"/>
				<v:ud v:nameU="msvThemeEffects" v:val="VT0(16):26"/>
			</v:userDefs>
			<g id="shadow7-31" v:groupContext="shadow" v:shadowOffsetX="1.44" v:shadowOffsetY="-1.44" v:shadowType="1"
					transform="matrix(1,0,0,1,-2.03647,0)" class="st1">
				<path d="M0 334.49 L19.84 314.65 L19.84 327.74 L82.77 327.74 L82.77 341.23 L19.84 341.23 L19.84 354.33 L0 334.49 Z"
						class="st2"/>
			</g>
			<path d="M0 334.49 L19.84 314.65 L19.84 327.74 L82.77 327.74 L82.77 341.23 L19.84 341.23 L19.84 354.33 L0 334.49 Z"
					class="st3"/>
		</g>
		<g id="shape8-35" v:mID="8" v:groupContext="shape" transform="translate(313.937,-87.874) scale(-1,1)">
			<title>45 度单向箭头.8</title>
			<v:userDefs>
				<v:ud v:nameU="visVersion" v:val="VT0(14):26"/>
				<v:ud v:nameU="msvThemeColors" v:val="VT0(36):26"/>
				<v:ud v:nameU="msvThemeEffects" v:val="VT0(16):26"/>
			</v:userDefs>
			<g id="shadow8-36" v:groupContext="shadow" v:shadowOffsetX="1.44" v:shadowOffsetY="-1.44" v:shadowType="1"
					transform="matrix(1,0,0,1,-1.44,1.44)" class="st1">
				<path d="M0 334.49 L19.84 314.65 L19.84 327.74 L133.94 327.74 L133.94 341.23 L19.84 341.23 L19.84 354.33 L0 334.49
							 Z" class="st2"/>
			</g>
			<path d="M0 334.49 L19.84 314.65 L19.84 327.74 L133.94 327.74 L133.94 341.23 L19.84 341.23 L19.84 354.33 L0 334.49 Z"
					class="st3"/>
		</g>
		<g id="shape9-40" v:mID="9" v:groupContext="shape" transform="translate(177.874,612.283) scale(1,-1)">
			<title>45 度单向箭头.9</title>
			<v:userDefs>
				<v:ud v:nameU="visVersion" v:val="VT0(14):26"/>
				<v:ud v:nameU="msvThemeColors" v:val="VT0(36):26"/>
				<v:ud v:nameU="msvThemeEffects" v:val="VT0(16):26"/>
			</v:userDefs>
			<g id="shadow9-41" v:groupContext="shadow" v:shadowOffsetX="1.44" v:shadowOffsetY="-1.44" v:shadowType="1"
					transform="matrix(1,0,0,1,1.44,-1.44)" class="st1">
				<path d="M0 334.49 L19.84 314.65 L19.84 327.74 L133.94 327.74 L133.94 341.23 L19.84 341.23 L19.84 354.33 L0 334.49
							 Z" class="st2"/>
			</g>
			<path d="M0 334.49 L19.84 314.65 L19.84 327.74 L133.94 327.74 L133.94 341.23 L19.84 341.23 L19.84 354.33 L0 334.49 Z"
					class="st3"/>
		</g>
		<g id="shape10-45" v:mID="10" v:groupContext="shape" transform="translate(193.78,-42.5197)">
			<title>工作表.10</title>
			<desc>MVC架构</desc>
			<v:userDefs>
				<v:ud v:nameU="msvThemeColors" v:val="VT0(36):26"/>
				<v:ud v:nameU="msvThemeEffects" v:val="VT0(16):26"/>
			</v:userDefs>
			<v:textBlock v:margins="rect(2,2,2,2)" v:tabSpace="42.5197"/>
			<v:textRect cx="50" cy="348.331" width="100" height="12"/>
			<rect x="0" y="342.331" width="100" height="12" class="st5"/>
			<text x="22.31" y="352.99" class="st6" v:langID="2052"><v:paragraph v:horizAlign="1"/><v:tabList/>MVC<tspan class="st7">架构</tspan></text>		</g>
	</g>
</svg>
