<svg version="1.1" xmlns="http://www.w3.org/2000/svg" xmlns:xlink="http://www.w3.org/1999/xlink" width="1048.3515625" height="992"><defs/><g><g transform="translate(-70,-30) scale(1,1)"><rect fill="#C0C0C0" stroke="none" x="399" y="223" width="476.3515625" height="71" opacity="0.2"/></g><g transform="translate(-70,-30) scale(1,1)"><rect fill="#ffffff" stroke="none" x="392" y="216" width="476.3515625" height="71"/></g><g transform="translate(-70,-30) scale(1,1)"><path fill="none" stroke="#000000" d="M 392 216 L 868.3515625 216 L 868.3515625 287 L 392 287 L 392 216 Z Z" stroke-miterlimit="10"/></g><g transform="translate(-70,-30) scale(1,1)"><path fill="none" stroke="#000000" d="M 392 244 L 868.3515625 244" stroke-miterlimit="10"/></g><g transform="translate(-70,-30) scale(1,1)"><g><path fill="none" stroke="none"/><text fill="#000000" stroke="none" font-family="Arial" font-size="16px" font-style="normal" font-weight="bold" text-decoration="none" x="580.375" y="238.5">IBasicHandler</text></g></g><g transform="translate(-70,-30) scale(1,1)"><g><path fill="none" stroke="none"/><text fill="#000000" stroke="none" font-family="Arial" font-size="16px" font-style="normal" font-weight="normal" text-decoration="none" x="397" y="264.5">~handleTask(callback: Callback, taskType: int, data: Bundle): void</text></g></g><g transform="translate(-70,-30) scale(1,1)"><g><path fill="none" stroke="none"/><text fill="#000000" stroke="none" font-family="Arial" font-size="16px" font-style="normal" font-weight="normal" text-decoration="none" x="397" y="282.5">~getData(dataType: int, data: Bundle): Object</text></g></g><g transform="translate(-70,-30) scale(1,1)"><rect fill="#C0C0C0" stroke="none" x="463" y="47" width="239.8203125" height="143" opacity="0.2"/></g><g transform="translate(-70,-30) scale(1,1)"><rect fill="#ffffff" stroke="none" x="456" y="40" width="239.8203125" height="143"/></g><g transform="translate(-70,-30) scale(1,1)"><path fill="none" stroke="#000000" d="M 456 40 L 695.8203125 40 L 695.8203125 183 L 456 183 L 456 40 Z Z" stroke-miterlimit="10"/></g><g transform="translate(-70,-30) scale(1,1)"><path fill="none" stroke="#000000" d="M 456 68 L 695.8203125 68" stroke-miterlimit="10"/></g><g transform="translate(-70,-30) scale(1,1)"><g><path fill="none" stroke="none"/><text fill="#000000" stroke="none" font-family="Arial" font-size="16px" font-style="normal" font-weight="bold" text-decoration="none" x="532.3359375" y="62.5">ILifeRecycle</text></g></g><g transform="translate(-70,-30) scale(1,1)"><g><path fill="none" stroke="none"/><text fill="#000000" stroke="none" font-family="Arial" font-size="16px" font-style="normal" font-weight="normal" text-decoration="none" x="461" y="88.5">~onCreate(bundle: Bundle): void</text></g></g><g transform="translate(-70,-30) scale(1,1)"><g><path fill="none" stroke="none"/><text fill="#000000" stroke="none" font-family="Arial" font-size="16px" font-style="normal" font-weight="normal" text-decoration="none" x="461" y="106.5">~onStart(): void</text></g></g><g transform="translate(-70,-30) scale(1,1)"><g><path fill="none" stroke="none"/><text fill="#000000" stroke="none" font-family="Arial" font-size="16px" font-style="normal" font-weight="normal" text-decoration="none" x="461" y="124.5">~onResume(): void</text></g></g><g transform="translate(-70,-30) scale(1,1)"><g><path fill="none" stroke="none"/><text fill="#000000" stroke="none" font-family="Arial" font-size="16px" font-style="normal" font-weight="normal" text-decoration="none" x="461" y="142.5">~onPause(): void</text></g></g><g transform="translate(-70,-30) scale(1,1)"><g><path fill="none" stroke="none"/><text fill="#000000" stroke="none" font-family="Arial" font-size="16px" font-style="normal" font-weight="normal" text-decoration="none" x="461" y="160.5">~onStop(): void</text></g></g><g transform="translate(-70,-30) scale(1,1)"><g><path fill="none" stroke="none"/><text fill="#000000" stroke="none" font-family="Arial" font-size="16px" font-style="normal" font-weight="normal" text-decoration="none" x="461" y="178.5">~onDestroy(): void</text></g></g><g transform="translate(-70,-30) scale(1,1)"><rect fill="#C0C0C0" stroke="none" x="719" y="407" width="315.328125" height="53" opacity="0.2"/></g><g transform="translate(-70,-30) scale(1,1)"><rect fill="#ffffff" stroke="none" x="712" y="400" width="315.328125" height="53"/></g><g transform="translate(-70,-30) scale(1,1)"><path fill="none" stroke="#000000" d="M 712 400 L 1027.328125 400 L 1027.328125 453 L 712 453 L 712 400 Z Z" stroke-miterlimit="10"/></g><g transform="translate(-70,-30) scale(1,1)"><path fill="none" stroke="#000000" d="M 712 428 L 1027.328125 428" stroke-miterlimit="10"/></g><g transform="translate(-70,-30) scale(1,1)"><g><path fill="none" stroke="none"/><text fill="#000000" stroke="none" font-family="Arial" font-size="16px" font-style="normal" font-weight="bold" text-decoration="none" x="826.08984375" y="422.5">IBasicModel</text></g></g><g transform="translate(-70,-30) scale(1,1)"><g><path fill="none" stroke="none"/><text fill="#000000" stroke="none" font-family="Arial" font-size="16px" font-style="normal" font-weight="normal" text-decoration="none" x="717" y="448.5">~setWorkCallback(callback: Callback): void</text></g></g><g transform="translate(-70,-30) scale(1,1)"><path fill="none" stroke="#000000" d="M 712 440 L 624 440 L 624 287" stroke-miterlimit="10"/></g><g transform="translate(-70,-30) scale(1,1)"><path fill="#FFFFFF" stroke="none" d="M 632.419035512032 307.3253497152483 L 624 287 L 615.580964487968 307.3253497152483"/></g><g transform="translate(-70,-30) scale(1,1)"><path fill="none" stroke="#000000" d="M 632.419035512032 307.3253497152483 L 624 287 L 615.580964487968 307.3253497152483 L 632.419035512032 307.3253497152483" stroke-miterlimit="10"/></g><g transform="translate(-70,-30) scale(1,1)"><path fill="none" stroke="#000000" d="M 920 400 L 920 120 L 696 120" stroke-miterlimit="10"/></g><g transform="translate(-70,-30) scale(1,1)"><path fill="#FFFFFF" stroke="none" d="M 716.3253497152483 111.58096448796803 L 696 120 L 716.3253497152483 128.41903551203197"/></g><g transform="translate(-70,-30) scale(1,1)"><path fill="none" stroke="#000000" d="M 716.3253497152483 111.58096448796803 L 696 120 L 716.3253497152483 128.41903551203197 L 716.3253497152483 111.58096448796803" stroke-miterlimit="10"/></g><g transform="translate(-70,-30) scale(1,1)"><rect fill="#C0C0C0" stroke="none" x="639" y="607" width="476.3515625" height="287" opacity="0.2"/></g><g transform="translate(-70,-30) scale(1,1)"><rect fill="#ffffff" stroke="none" x="632" y="600" width="476.3515625" height="287"/></g><g transform="translate(-70,-30) scale(1,1)"><path fill="none" stroke="#000000" d="M 632 600 L 1108.3515625 600 L 1108.3515625 887 L 632 887 L 632 600 Z Z" stroke-miterlimit="10"/></g><g transform="translate(-70,-30) scale(1,1)"><path fill="none" stroke="#000000" d="M 632 628 L 1108.3515625 628" stroke-miterlimit="10"/></g><g transform="translate(-70,-30) scale(1,1)"><g><path fill="none" stroke="none"/><text fill="#000000" stroke="none" font-family="Arial" font-size="16px" font-style="italic" font-weight="bold" text-decoration="none" x="828.82421875" y="622.5">BasicModel</text></g></g><g transform="translate(-70,-30) scale(1,1)"><g><path fill="none" stroke="none"/><text fill="#000000" stroke="none" font-family="Arial" font-size="16px" font-style="normal" font-weight="normal" text-decoration="none" x="637" y="648.5">+BasicModel()</text></g></g><g transform="translate(-70,-30) scale(1,1)"><g><path fill="none" stroke="none"/><text fill="#000000" stroke="none" font-family="Arial" font-size="16px" font-style="normal" font-weight="normal" text-decoration="none" x="637" y="666.5">+BasicModel(nThreads: int)</text></g></g><g transform="translate(-70,-30) scale(1,1)"><g><path fill="none" stroke="none"/><text fill="#000000" stroke="none" font-family="Arial" font-size="16px" font-style="normal" font-weight="normal" text-decoration="none" x="637" y="684.5">#getWorkHandler(): Handler</text></g></g><g transform="translate(-70,-30) scale(1,1)"><g><path fill="none" stroke="none"/><text fill="#000000" stroke="none" font-family="Arial" font-size="16px" font-style="normal" font-weight="normal" text-decoration="none" x="637" y="702.5">+setWorkCallback(callback: Callback): void</text></g></g><g transform="translate(-70,-30) scale(1,1)"><g><path fill="none" stroke="none"/><text fill="#000000" stroke="none" font-family="Arial" font-size="16px" font-style="normal" font-weight="normal" text-decoration="none" x="637" y="720.5">#getWorkingCallback(): Callback</text></g></g><g transform="translate(-70,-30) scale(1,1)"><g><path fill="none" stroke="none"/><text fill="#000000" stroke="none" font-family="Arial" font-size="16px" font-style="italic" font-weight="normal" text-decoration="none" x="637" y="738.5">#handleMessage(msg: Message): void</text></g></g><g transform="translate(-70,-30) scale(1,1)"><g><path fill="none" stroke="none"/><text fill="#000000" stroke="none" font-family="Arial" font-size="16px" font-style="normal" font-weight="normal" text-decoration="none" x="637" y="756.5">+onCreate(bundle: Bundle): void</text></g></g><g transform="translate(-70,-30) scale(1,1)"><g><path fill="none" stroke="none"/><text fill="#000000" stroke="none" font-family="Arial" font-size="16px" font-style="normal" font-weight="normal" text-decoration="none" x="637" y="774.5">+onStart(): void</text></g></g><g transform="translate(-70,-30) scale(1,1)"><g><path fill="none" stroke="none"/><text fill="#000000" stroke="none" font-family="Arial" font-size="16px" font-style="normal" font-weight="normal" text-decoration="none" x="637" y="792.5">+onResume(): void</text></g></g><g transform="translate(-70,-30) scale(1,1)"><g><path fill="none" stroke="none"/><text fill="#000000" stroke="none" font-family="Arial" font-size="16px" font-style="normal" font-weight="normal" text-decoration="none" x="637" y="810.5">+onPause(): void</text></g></g><g transform="translate(-70,-30) scale(1,1)"><g><path fill="none" stroke="none"/><text fill="#000000" stroke="none" font-family="Arial" font-size="16px" font-style="normal" font-weight="normal" text-decoration="none" x="637" y="828.5">+onStop(): void</text></g></g><g transform="translate(-70,-30) scale(1,1)"><g><path fill="none" stroke="none"/><text fill="#000000" stroke="none" font-family="Arial" font-size="16px" font-style="normal" font-weight="normal" text-decoration="none" x="637" y="846.5">+onDestroy(): void</text></g></g><g transform="translate(-70,-30) scale(1,1)"><g><path fill="none" stroke="none"/><text fill="#000000" stroke="none" font-family="Arial" font-size="16px" font-style="normal" font-weight="normal" text-decoration="none" x="637" y="864.5">+handleTask(callback: Callback, taskType: int, data: Bundle): void</text></g></g><g transform="translate(-70,-30) scale(1,1)"><g><path fill="none" stroke="none"/><text fill="#000000" stroke="none" font-family="Arial" font-size="16px" font-style="normal" font-weight="normal" text-decoration="none" x="637" y="882.5">+getData(dataType: int, data: Bundle): Object</text></g></g><g transform="translate(-70,-30) scale(1,1)"><path fill="none" stroke="#000000" d="M 920 600 L 920 453" stroke-miterlimit="10" stroke-dasharray="3"/></g><g transform="translate(-70,-30) scale(1,1)"><path fill="#FFFFFF" stroke="none" d="M 928.419035512032 473.3253497152483 L 920 453 L 911.580964487968 473.3253497152483"/></g><g transform="translate(-70,-30) scale(1,1)"><path fill="none" stroke="#000000" d="M 928.419035512032 473.3253497152483 L 920 453 L 911.580964487968 473.3253497152483 L 928.419035512032 473.3253497152483" stroke-miterlimit="10"/></g><g transform="translate(-70,-30) scale(1,1)"><rect fill="#C0C0C0" stroke="none" x="263" y="415" width="129.9609375" height="37" opacity="0.2"/></g><g transform="translate(-70,-30) scale(1,1)"><rect fill="#ffffff" stroke="none" x="256" y="408" width="129.9609375" height="37"/></g><g transform="translate(-70,-30) scale(1,1)"><path fill="none" stroke="#000000" d="M 256 408 L 385.9609375 408 L 385.9609375 445 L 256 445 L 256 408 Z Z" stroke-miterlimit="10"/></g><g transform="translate(-70,-30) scale(1,1)"><path fill="none" stroke="#000000" d="M 256 436 L 385.9609375 436" stroke-miterlimit="10"/></g><g transform="translate(-70,-30) scale(1,1)"><g><path fill="none" stroke="none"/><text fill="#000000" stroke="none" font-family="Arial" font-size="16px" font-style="normal" font-weight="bold" text-decoration="none" x="264.51171875" y="430.5">IBasicPresenter</text></g></g><g transform="translate(-70,-30) scale(1,1)"><path fill="none" stroke="#000000" d="M 386 442 L 512 442 L 512 287" stroke-miterlimit="10"/></g><g transform="translate(-70,-30) scale(1,1)"><path fill="#FFFFFF" stroke="none" d="M 520.419035512032 307.3253497152483 L 512 287 L 503.580964487968 307.3253497152483"/></g><g transform="translate(-70,-30) scale(1,1)"><path fill="none" stroke="#000000" d="M 520.419035512032 307.3253497152483 L 512 287 L 503.580964487968 307.3253497152483 L 520.419035512032 307.3253497152483" stroke-miterlimit="10"/></g><g transform="translate(-70,-30) scale(1,1)"><path fill="none" stroke="#000000" d="M 312 408 L 312 120 L 456 120" stroke-miterlimit="10"/></g><g transform="translate(-70,-30) scale(1,1)"><path fill="#FFFFFF" stroke="none" d="M 435.6746502847517 128.41903551203197 L 456 120 L 435.6746502847517 111.58096448796803"/></g><g transform="translate(-70,-30) scale(1,1)"><path fill="none" stroke="#000000" d="M 435.6746502847517 128.41903551203197 L 456 120 L 435.6746502847517 111.58096448796803 L 435.6746502847517 128.41903551203197" stroke-miterlimit="10"/></g><g transform="translate(-70,-30) scale(1,1)"><rect fill="#C0C0C0" stroke="none" x="87" y="606" width="511.03125" height="413" opacity="0.2"/></g><g transform="translate(-70,-30) scale(1,1)"><rect fill="#C0C0C0" stroke="none" x="491.3203125" y="567" width="115.7109375" height="43" opacity="0.2"/></g><g transform="translate(-70,-30) scale(1,1)"><rect fill="#ffffff" stroke="none" x="80" y="599" width="511.03125" height="413"/></g><g transform="translate(-70,-30) scale(1,1)"><path fill="none" stroke="#000000" d="M 80 599 L 591.03125 599 L 591.03125 1012 L 80 1012 L 80 599 Z Z" stroke-miterlimit="10"/></g><g transform="translate(-70,-30) scale(1,1)"><path fill="none" stroke="#000000" d="M 80 627 L 591.03125 627" stroke-miterlimit="10"/></g><g transform="translate(-70,-30) scale(1,1)"><g><path fill="none" stroke="none"/><text fill="#000000" stroke="none" font-family="Arial" font-size="16px" font-style="italic" font-weight="bold" text-decoration="none" x="281.26953125" y="621.5">BasicPresenter</text></g></g><g transform="translate(-70,-30) scale(1,1)"><g><path fill="none" stroke="none"/><text fill="#000000" stroke="none" font-family="Arial" font-size="16px" font-style="normal" font-weight="normal" text-decoration="none" x="85" y="647.5">+BasicPresenter(view: T, model: K)</text></g></g><g transform="translate(-70,-30) scale(1,1)"><g><path fill="none" stroke="none"/><text fill="#000000" stroke="none" font-family="Arial" font-size="16px" font-style="normal" font-weight="normal" text-decoration="none" x="85" y="665.5">#getBasicView(): T</text></g></g><g transform="translate(-70,-30) scale(1,1)"><g><path fill="none" stroke="none"/><text fill="#000000" stroke="none" font-family="Arial" font-size="16px" font-style="normal" font-weight="normal" text-decoration="none" x="85" y="683.5">#getBasicModel(): K</text></g></g><g transform="translate(-70,-30) scale(1,1)"><g><path fill="none" stroke="none"/><text fill="#000000" stroke="none" font-family="Arial" font-size="16px" font-style="normal" font-weight="normal" text-decoration="none" x="85" y="701.5">#getHandler(): Handler</text></g></g><g transform="translate(-70,-30) scale(1,1)"><g><path fill="none" stroke="none"/><text fill="#000000" stroke="none" font-family="Arial" font-size="16px" font-style="normal" font-weight="normal" text-decoration="none" x="85" y="719.5">#onWorkingCalledOnUIThread(dataType: int, data: Bundle): void</text></g></g><g transform="translate(-70,-30) scale(1,1)"><g><path fill="none" stroke="none"/><text fill="#000000" stroke="none" font-family="Arial" font-size="16px" font-style="normal" font-weight="normal" text-decoration="none" x="85" y="737.5">#onWorkingCalledOnWorkThread(dataType: int, data: Bundle): void</text></g></g><g transform="translate(-70,-30) scale(1,1)"><g><path fill="none" stroke="none"/><text fill="#000000" stroke="none" font-family="Arial" font-size="16px" font-style="normal" font-weight="normal" text-decoration="none" x="85" y="755.5">#onSuccessCalledOnUIThread(dataType: int, data: Bundle): void</text></g></g><g transform="translate(-70,-30) scale(1,1)"><g><path fill="none" stroke="none"/><text fill="#000000" stroke="none" font-family="Arial" font-size="16px" font-style="normal" font-weight="normal" text-decoration="none" x="85" y="773.5">#onSuccessCalledOnWorkThread(dataType: int, data: Bundle): void</text></g></g><g transform="translate(-70,-30) scale(1,1)"><g><path fill="none" stroke="none"/><text fill="#000000" stroke="none" font-family="Arial" font-size="16px" font-style="normal" font-weight="normal" text-decoration="none" x="85" y="791.5">#onFailedCalledOnWorkThread(dataType: int, data: Bundle): void</text></g></g><g transform="translate(-70,-30) scale(1,1)"><g><path fill="none" stroke="none"/><text fill="#000000" stroke="none" font-family="Arial" font-size="16px" font-style="normal" font-weight="normal" text-decoration="none" x="85" y="809.5">#onFailedCalledOnUIThread(dataType: int, data: Bundle): void</text></g></g><g transform="translate(-70,-30) scale(1,1)"><g><path fill="none" stroke="none"/><text fill="#000000" stroke="none" font-family="Arial" font-size="16px" font-style="normal" font-weight="normal" text-decoration="none" x="85" y="827.5">#onErrorCalledOnWorkThread(dataType: int, data: Bundle): void</text></g></g><g transform="translate(-70,-30) scale(1,1)"><g><path fill="none" stroke="none"/><text fill="#000000" stroke="none" font-family="Arial" font-size="16px" font-style="normal" font-weight="normal" text-decoration="none" x="85" y="845.5">#onErrorCalledOnUIThread(dataType: int, data: Bundle): void</text></g></g><g transform="translate(-70,-30) scale(1,1)"><g><path fill="none" stroke="none"/><text fill="#000000" stroke="none" font-family="Arial" font-size="16px" font-style="normal" font-weight="normal" text-decoration="none" x="85" y="863.5">#handleMessage(msg: Message): void</text></g></g><g transform="translate(-70,-30) scale(1,1)"><g><path fill="none" stroke="none"/><text fill="#000000" stroke="none" font-family="Arial" font-size="16px" font-style="normal" font-weight="normal" text-decoration="none" x="85" y="881.5">+onCreate(bundle: Bundle): void</text></g></g><g transform="translate(-70,-30) scale(1,1)"><g><path fill="none" stroke="none"/><text fill="#000000" stroke="none" font-family="Arial" font-size="16px" font-style="normal" font-weight="normal" text-decoration="none" x="85" y="899.5">+onResume(): void</text></g></g><g transform="translate(-70,-30) scale(1,1)"><g><path fill="none" stroke="none"/><text fill="#000000" stroke="none" font-family="Arial" font-size="16px" font-style="normal" font-weight="normal" text-decoration="none" x="85" y="917.5">+onPause(): void</text></g></g><g transform="translate(-70,-30) scale(1,1)"><g><path fill="none" stroke="none"/><text fill="#000000" stroke="none" font-family="Arial" font-size="16px" font-style="normal" font-weight="normal" text-decoration="none" x="85" y="935.5">+onStart(): void</text></g></g><g transform="translate(-70,-30) scale(1,1)"><g><path fill="none" stroke="none"/><text fill="#000000" stroke="none" font-family="Arial" font-size="16px" font-style="normal" font-weight="normal" text-decoration="none" x="85" y="953.5">+onStop(): void</text></g></g><g transform="translate(-70,-30) scale(1,1)"><g><path fill="none" stroke="none"/><text fill="#000000" stroke="none" font-family="Arial" font-size="16px" font-style="normal" font-weight="normal" text-decoration="none" x="85" y="971.5">+onDestroy(): void</text></g></g><g transform="translate(-70,-30) scale(1,1)"><g><path fill="none" stroke="none"/><text fill="#000000" stroke="none" font-family="Arial" font-size="16px" font-style="normal" font-weight="normal" text-decoration="none" x="85" y="989.5">+handleTask(callback: Callback, taskType: int, data: Bundle): void</text></g></g><g transform="translate(-70,-30) scale(1,1)"><g><path fill="none" stroke="none"/><text fill="#000000" stroke="none" font-family="Arial" font-size="16px" font-style="normal" font-weight="normal" text-decoration="none" x="85" y="1007.5">+getData(dataType: int, data: Bundle): Object</text></g></g><g transform="translate(-70,-30) scale(1,1)"><rect fill="#ffffff" stroke="none" x="484.3203125" y="560" width="115.7109375" height="43"/></g><g transform="translate(-70,-30) scale(1,1)"><path fill="none" stroke="#000000" d="M 484.3203125 560 L 600.03125 560 L 600.03125 603 L 484.3203125 603 L 484.3203125 560 Z Z" stroke-miterlimit="10" stroke-dasharray="3"/></g><g transform="translate(-70,-30) scale(1,1)"><g><path fill="none" stroke="none"/><text fill="#000000" stroke="none" font-family="Arial" font-size="16px" font-style="normal" font-weight="normal" text-decoration="none" x="489.3203125" y="580.5">T: IBasicView</text></g></g><g transform="translate(-70,-30) scale(1,1)"><g><path fill="none" stroke="none"/><text fill="#000000" stroke="none" font-family="Arial" font-size="16px" font-style="normal" font-weight="normal" text-decoration="none" x="489.3203125" y="598.5">K: IBasicModel</text></g></g><g transform="translate(-70,-30) scale(1,1)"><path fill="none" stroke="#000000" d="M 528 560 L 528 512 L 320 512 L 320 445" stroke-miterlimit="10" stroke-dasharray="3"/></g><g transform="translate(-70,-30) scale(1,1)"><path fill="#FFFFFF" stroke="none" d="M 328.419035512032 465.3253497152483 L 320 445 L 311.580964487968 465.3253497152483"/></g><g transform="translate(-70,-30) scale(1,1)"><path fill="none" stroke="#000000" d="M 328.419035512032 465.3253497152483 L 320 445 L 311.580964487968 465.3253497152483 L 328.419035512032 465.3253497152483" stroke-miterlimit="10"/></g></g></svg>