<?xml version="1.0" encoding="UTF-8" standalone="no"?>
<!DOCTYPE svg PUBLIC "-//W3C//DTD SVG 1.0//EN" "http://www.w3.org/TR/2001/REC-SVG-20010904/DTD/svg10.dtd">
<!-- 由 Microsoft Visio 11.0, SVG Export, v1.0 生成 MVVM架构示意图.svg Page-1 -->
<svg xmlns="http://www.w3.org/2000/svg" xmlns:xlink="http://www.w3.org/1999/xlink" xmlns:ev="http://www.w3.org/2001/xml-events"
		xmlns:v="http://schemas.microsoft.com/visio/2003/SVGExtensions/" width="6.22047in" height="5.11811in"
		viewBox="0 0 447.874 368.504" xml:space="preserve" color-interpolation-filters="sRGB" class="st8">
	<v:documentProperties v:langID="2052" v:metric="true" v:viewMarkup="false">
		<v:userDefs>
			<v:ud v:nameU="msvNoAutoConnect" v:val="VT0(0):26"/>
		</v:userDefs>
	</v:documentProperties>

	<style type="text/css">
	<![CDATA[
		.st1 {visibility:visible}
		.st2 {fill:#cdcdcd;fill-opacity:0.5;stroke:#cdcdcd;stroke-linecap:round;stroke-linejoin:round;stroke-opacity:0.5;stroke-width:0.25}
		.st3 {fill:url(#grad30-6);stroke:#404040;stroke-linecap:round;stroke-linejoin:round;stroke-width:0.25}
		.st4 {fill:#000000;font-family:Calibri;font-size:1.33333em}
		.st5 {fill:none;stroke:none;stroke-linecap:round;stroke-linejoin:round;stroke-width:0.25}
		.st6 {fill:#000000;font-family:Calibri;font-size:1.16666em}
		.st7 {font-family:宋体;font-size:1em}
		.st8 {fill:none;fill-rule:evenodd;font-size:12px;overflow:visible;stroke-linecap:square;stroke-miterlimit:3}
	]]>
	</style>

	<defs id="Patterns_And_Gradients">
		<linearGradient id="grad30-6" v:fillPattern="30" v:foreground="#f0f0f0" v:background="#ffffff" x1="0" y1="1" x2="0" y2="0">
			<stop offset="0" style="stop-color:#f0f0f0;stop-opacity:1"/>
			<stop offset="1" style="stop-color:#ffffff;stop-opacity:1"/>
		</linearGradient>
	</defs>
	<g v:mID="0" v:index="1" v:groupContext="foregroundPage">
		<v:userDefs>
			<v:ud v:nameU="msvThemeColors" v:val="VT0(36):26"/>
			<v:ud v:nameU="msvThemeEffects" v:val="VT0(16):26"/>
			<v:ud v:nameU="msvThemeOrder" v:val="VT0(0):26"/>
		</v:userDefs>
		<title>页-1</title>
		<v:pageProperties v:drawingScale="0.0393701" v:pageScale="0.0393701" v:drawingUnits="24" v:shadowOffsetX="8.50394"
				v:shadowOffsetY="-8.50394"/>
		<g id="shape1-1" v:mID="1" v:groupContext="shape" transform="translate(170.079,-212.598)">
			<title>圆形</title>
			<desc>ViewModel</desc>
			<v:userDefs>
				<v:ud v:nameU="visVersion" v:val="VT0(14):26"/>
				<v:ud v:nameU="msvThemeColors" v:val="VT0(36):26"/>
				<v:ud v:nameU="msvThemeEffects" v:val="VT0(16):26"/>
			</v:userDefs>
			<v:textBlock v:margins="rect(4,4,4,4)" v:tabSpace="42.5197"/>
			<v:textRect cx="56.6929" cy="311.811" width="99.22" height="85.0394"/>
			<g id="shadow1-2" v:groupContext="shadow" v:shadowOffsetX="1.44" v:shadowOffsetY="-1.44" v:shadowType="1"
					transform="matrix(1,0,0,1,1.44,1.44)" class="st1">
				<path d="M0 311.81 A56.6929 56.6929 0 0 1 113.39 311.81 A56.6929 56.6929 0 1 1 0 311.81 Z" class="st2"/>
			</g>
			<path d="M0 311.81 A56.6929 56.6929 0 0 1 113.39 311.81 A56.6929 56.6929 0 1 1 0 311.81 Z" class="st3"/>
			<text x="19.54" y="316.61" class="st4" v:langID="2052"><v:paragraph v:horizAlign="1"/><v:tabList/>ViewModel</text>		</g>
		<g id="shape2-8" v:mID="2" v:groupContext="shape" transform="translate(42.5197,-42.5197)">
			<title>圆形.2</title>
			<desc>View</desc>
			<v:userDefs>
				<v:ud v:nameU="visVersion" v:val="VT0(14):26"/>
				<v:ud v:nameU="msvThemeColors" v:val="VT0(36):26"/>
				<v:ud v:nameU="msvThemeEffects" v:val="VT0(16):26"/>
			</v:userDefs>
			<v:textBlock v:margins="rect(4,4,4,4)" v:tabSpace="42.5197"/>
			<v:textRect cx="56.6929" cy="311.811" width="99.22" height="85.0394"/>
			<g id="shadow2-9" v:groupContext="shadow" v:shadowOffsetX="1.44" v:shadowOffsetY="-1.44" v:shadowType="1"
					transform="matrix(1,0,0,1,1.44,1.44)" class="st1">
				<path d="M0 311.81 A56.6929 56.6929 0 0 1 113.39 311.81 A56.6929 56.6929 0 1 1 0 311.81 Z" class="st2"/>
			</g>
			<path d="M0 311.81 A56.6929 56.6929 0 0 1 113.39 311.81 A56.6929 56.6929 0 1 1 0 311.81 Z" class="st3"/>
			<text x="40.62" y="316.61" class="st4" v:langID="2052"><v:paragraph v:horizAlign="1"/><v:tabList/>View</text>		</g>
		<g id="shape3-14" v:mID="3" v:groupContext="shape" transform="translate(289.134,-42.5197)">
			<title>圆形.3</title>
			<desc>Model</desc>
			<v:userDefs>
				<v:ud v:nameU="visVersion" v:val="VT0(14):26"/>
				<v:ud v:nameU="msvThemeColors" v:val="VT0(36):26"/>
				<v:ud v:nameU="msvThemeEffects" v:val="VT0(16):26"/>
			</v:userDefs>
			<v:textBlock v:margins="rect(4,4,4,4)" v:tabSpace="42.5197"/>
			<v:textRect cx="56.6929" cy="311.811" width="99.22" height="85.0394"/>
			<g id="shadow3-15" v:groupContext="shadow" v:shadowOffsetX="1.44" v:shadowOffsetY="-1.44" v:shadowType="1"
					transform="matrix(1,0,0,1,1.44,1.44)" class="st1">
				<path d="M0 311.81 A56.6929 56.6929 0 0 1 113.39 311.81 A56.6929 56.6929 0 1 1 0 311.81 Z" class="st2"/>
			</g>
			<path d="M0 311.81 A56.6929 56.6929 0 0 1 113.39 311.81 A56.6929 56.6929 0 1 1 0 311.81 Z" class="st3"/>
			<text x="35.61" y="316.61" class="st4" v:langID="2052"><v:paragraph v:horizAlign="1"/><v:tabList/>Model</text>		</g>
		<g id="shape4-20" v:mID="4" v:groupContext="shape" transform="translate(-124.834,-20.8779) rotate(-47.2672)">
			<title>45 度双向箭头</title>
			<v:userDefs>
				<v:ud v:nameU="visVersion" v:val="VT0(14):26"/>
				<v:ud v:nameU="msvThemeColors" v:val="VT0(36):26"/>
				<v:ud v:nameU="msvThemeEffects" v:val="VT0(16):26"/>
			</v:userDefs>
			<g id="shadow4-21" v:groupContext="shadow" v:shadowOffsetX="1.44" v:shadowOffsetY="-1.44" v:shadowType="1"
					transform="matrix(1,0,0,1,-0.0805632,2.03487)" class="st1">
				<path d="M0 348.66 L19.84 328.82 L19.84 341.91 L69.91 341.91 L69.91 328.82 L89.75 348.66 L69.91 368.5 L69.91 355.41
							 L19.84 355.41 L19.84 368.5 L0 348.66 Z" class="st2"/>
			</g>
			<path d="M0 348.66 L19.84 328.82 L19.84 341.91 L69.91 341.91 L69.91 328.82 L89.75 348.66 L69.91 368.5 L69.91 355.41 L19.84
						 355.41 L19.84 368.5 L0 348.66 Z" class="st3"/>
		</g>
		<g id="shape5-25" v:mID="5" v:groupContext="shape" transform="translate(31.9631,391.816) rotate(45) scale(1,-1)">
			<title>45 度单向箭头</title>
			<v:userDefs>
				<v:ud v:nameU="visVersion" v:val="VT0(14):26"/>
				<v:ud v:nameU="msvThemeColors" v:val="VT0(36):26"/>
				<v:ud v:nameU="msvThemeEffects" v:val="VT0(16):26"/>
			</v:userDefs>
			<g id="shadow5-26" v:groupContext="shadow" v:shadowOffsetX="1.44" v:shadowOffsetY="-1.44" v:shadowType="1"
					transform="matrix(1,0,0,1,2.03647,-5.68434E-014)" class="st1">
				<path d="M0 348.66 L19.84 328.82 L19.84 341.91 L75.16 341.91 L75.16 355.41 L19.84 355.41 L19.84 368.5 L0 348.66 Z"
						class="st2"/>
			</g>
			<path d="M0 348.66 L19.84 328.82 L19.84 341.91 L75.16 341.91 L75.16 355.41 L19.84 355.41 L19.84 368.5 L0 348.66 Z"
					class="st3"/>
		</g>
		<g id="shape6-30" v:mID="6" v:groupContext="shape" transform="translate(555.064,-28.2731) rotate(45) scale(-1,1)">
			<title>45 度单向箭头.6</title>
			<v:userDefs>
				<v:ud v:nameU="visVersion" v:val="VT0(14):26"/>
				<v:ud v:nameU="msvThemeColors" v:val="VT0(36):26"/>
				<v:ud v:nameU="msvThemeEffects" v:val="VT0(16):26"/>
			</v:userDefs>
			<g id="shadow6-31" v:groupContext="shadow" v:shadowOffsetX="1.44" v:shadowOffsetY="-1.44" v:shadowType="1"
					transform="matrix(1,0,0,1,-2.03647,1.13687E-013)" class="st1">
				<path d="M0 348.66 L19.84 328.82 L19.84 341.91 L72.16 341.91 L72.16 355.41 L19.84 355.41 L19.84 368.5 L0 348.66 Z"
						class="st2"/>
			</g>
			<path d="M0 348.66 L19.84 328.82 L19.84 341.91 L72.16 341.91 L72.16 355.41 L19.84 355.41 L19.84 368.5 L0 348.66 Z"
					class="st3"/>
		</g>
		<g id="shape7-35" v:mID="7" v:groupContext="shape" transform="translate(172.52,-89.5433)">
			<title>工作表.7</title>
			<desc>MVVM架构</desc>
			<v:userDefs>
				<v:ud v:nameU="msvThemeColors" v:val="VT0(36):26"/>
				<v:ud v:nameU="msvThemeEffects" v:val="VT0(16):26"/>
			</v:userDefs>
			<v:textBlock v:margins="rect(2,2,2,2)" v:tabSpace="42.5197"/>
			<v:textRect cx="50" cy="362.504" width="100" height="12"/>
			<rect x="0" y="356.504" width="100" height="12" class="st5"/>
			<text x="16.09" y="367.16" class="st6" v:langID="2052"><v:paragraph v:horizAlign="1"/><v:tabList/>MVVM<tspan
						class="st7">架构</tspan></text>		</g>
	</g>
</svg>
